<svg xmlns="http://www.w3.org/2000/svg" xml:space="preserve" style="enable-background:new 0 0 305.093 305.093" viewBox="0 0 305.093 305.093"><path d="M148.048 185.018c-.376-7.991-7.259-14.139-15.259-14.139h-3.921c4.507-2.789 7.421-7.905 7.022-13.682-.543-7.848-7.346-13.802-15.213-13.802h-10.832c.447 5.277-1.26 12.514-5.056 16.767a16.888 16.888 0 0 1-5.15 3.934c-.634.313-.423 1.257.284 1.257h3.872c1.605 0 3.157.773 3.988 2.145 1.8 2.972-.438 6.632-3.749 6.632h-23.66c-.846 0-1.674.244-2.384.702l-.006.004a11.64 11.64 0 0 0-5.28 9.767 11.64 11.64 0 0 0 5.28 9.766l.002.001a4.649 4.649 0 0 0 2.482.718h28.972c2.945 0 5.064 2.901 4.19 5.674-.598 1.897-2.471 3.103-4.46 3.103H80.467c-.878 0-1.739.249-2.482.718l-.002.001a11.64 11.64 0 0 0-5.28 9.766c0 4.001 2.019 7.633 5.28 9.767l.002.001a4.02 4.02 0 0 0 2.273.705h20.17c2.597 0 4.865 2.416 4.302 5.262-.412 2.082-2.348 3.515-4.47 3.515H80.449c-.839 0-1.671.223-2.378.676a11.64 11.64 0 0 0-5.368 9.823c0 5.532 3.96 10.364 9.368 11.459h26.976c7.867 0 14.67-5.955 15.212-13.803.399-5.776-2.515-10.891-7.02-13.68h4.436c7.867 0 14.67-5.955 15.212-13.803.399-5.776-2.515-10.891-7.02-13.68h3.342c8.443.001 15.241-7.042 14.839-15.574zM72.82 156.484a11.636 11.636 0 0 0 5.25 8.194 4.39 4.39 0 0 0 2.374.676h2.473c.722 0 .923-.982.26-1.267a23.95 23.95 0 0 1-6.462-4.124l-3.895-3.479z"/><path d="M63.926 154.856c0-1.943.29-3.816.797-5.598l-3.177-2.836c-1.544-1.379-1.782-3.851-.312-5.499a3.895 3.895 0 0 1 5.499-.311l15.17 13.54c5.121 4.57 12.781 3.94 17.164-.972 4.465-5.002 4.029-12.703-.972-17.167L71.487 112.26a12.136 12.136 0 0 0-16.786.566l-.115.112c-34.657 32.695-42.231 40.804-45.009 44.307C2.309 166.408 0 173.196 0 183.04v30.485c0 23.178 18.856 42.034 42.034 42.034h25.408a20.576 20.576 0 0 1-3.517-11.459c0-5.758 2.38-11.086 6.396-14.874a20.399 20.399 0 0 1-6.396-14.875c0-5.758 2.38-11.086 6.396-14.874a20.395 20.395 0 0 1-6.396-14.874c0-5.758 2.38-11.086 6.396-14.874a20.395 20.395 0 0 1-6.395-14.873zM227.107 164.623l.003-.002a11.626 11.626 0 0 0 5.163-8.137l-6.077 5.168a18.925 18.925 0 0 1-2.569 1.937c-.811.507-.426 1.764.529 1.764h.633a4.038 4.038 0 0 0 2.318-.73zM204.663 224.824h20.077c.839 0 1.661-.244 2.364-.703l.006-.004a11.638 11.638 0 0 0 5.28-9.766c0-4-2.019-7.632-5.28-9.765l-.006-.004a4.4 4.4 0 0 0-2.406-.716h-28.79c-1.603 0-3.156-.765-3.994-2.131-1.816-2.961.413-6.646 3.739-6.646h28.861c.914 0 1.81-.248 2.594-.719l.003-.001a11.638 11.638 0 0 0 5.28-9.765 11.64 11.64 0 0 0-5.28-9.766l-.006-.004a4.476 4.476 0 0 0-2.408-.703H201.06c-3.293 0-5.541-3.629-3.763-6.615.822-1.38 2.373-2.163 3.98-2.163h4.794c.991 0 1.334-1.308.472-1.796-2.255-1.278-4.396-3.028-6.328-5.192-3.531-3.955-5.464-9.185-4.976-14.97h-10.822c-7.867 0-14.67 5.954-15.213 13.802-.4 5.777 2.515 10.893 7.022 13.682h-3.921c-8 0-14.883 6.148-15.259 14.139-.402 8.531 6.396 15.574 14.84 15.574h3.342c-4.506 2.79-7.42 7.904-7.02 13.68.543 7.848 7.345 13.803 15.212 13.803h4.436c-4.505 2.789-7.419 7.904-7.02 13.68.543 7.848 7.345 13.803 15.212 13.803h26.976c5.4-1.093 9.369-5.918 9.369-11.459 0-4-2.019-7.632-5.28-9.765l-.001-.001a4.363 4.363 0 0 0-2.42-.733h-19.856c-2.121 0-4.057-1.432-4.47-3.512-.57-2.843 1.697-5.264 4.297-5.264z"/><path d="M295.514 157.242a14.816 14.816 0 0 0-2.769-3.973l-7.264-7.424-35.091-33.019a12.136 12.136 0 0 0-16.785-.566l-26.608 23.753c-5.013 4.476-5.45 12.152-.974 17.166 4.459 4.996 12.132 5.465 17.166.973l15.169-13.54a3.89 3.89 0 0 1 5.638 5.319c-.382.48-3.12 2.874-3.627 3.327.508 1.782.798 3.655.798 5.598 0 5.758-2.38 11.085-6.396 14.874a20.395 20.395 0 0 1 6.396 14.874c0 5.758-2.38 11.086-6.396 14.874a20.39 20.39 0 0 1 6.396 14.874c0 5.758-2.38 11.086-6.396 14.875a20.39 20.39 0 0 1 6.396 14.874c0 4.176-1.311 8.204-3.517 11.459h25.409c23.178 0 42.034-18.858 42.034-42.035V183.04c0-9.847-3.616-18.858-9.579-25.798zM160.046 122.967V57.033c0-4.143-3.357-7.5-7.5-7.5a7.499 7.499 0 0 0-7.5 7.5v65.934a7.5 7.5 0 0 0 15 0zM115.792 126.164a7.498 7.498 0 0 0 9.981 3.587 7.499 7.499 0 0 0 3.587-9.981L106.3 70.836a7.498 7.498 0 0 0-9.981-3.587 7.499 7.499 0 0 0-3.587 9.981l23.06 48.934zM179.319 129.751a7.5 7.5 0 0 0 9.982-3.587l23.06-48.934a7.499 7.499 0 0 0-3.587-9.981 7.496 7.496 0 0 0-9.981 3.587l-23.06 48.934a7.499 7.499 0 0 0 3.586 9.981z"/></svg>
